<?xml version="1.0" standalone="no"?>
<!DOCTYPE svg PUBLIC "-//W3C//DTD SVG 20010904//EN"
 "http://www.w3.org/TR/2001/REC-SVG-20010904/DTD/svg10.dtd">
<svg version="1.0" xmlns="http://www.w3.org/2000/svg"
 width="260.000000pt" height="445.000000pt" viewBox="0 0 260.000000 445.000000"
 preserveAspectRatio="xMidYMid meet">
<metadata>
Created by potrace 1.15, written by Peter Selinger 2001-2017
</metadata>
<g transform="translate(0.000000,445.000000) scale(0.100000,-0.100000)"
fill="#000000" stroke="none">
<path d="M1050 3993 c-129 -67 -144 -325 -26 -448 52 -54 117 -76 147 -49 42
38 51 133 14 169 -38 39 -47 32 -40 -30 8 -64 1 -105 -20 -105 -26 0 -83 60
-102 108 -28 72 -24 185 7 241 14 24 37 53 51 64 34 24 106 33 152 18 45 -15
93 -69 106 -118 8 -32 14 -259 33 -1238 l3 -140 -55 -7 c-113 -14 -198 -58
-277 -140 -94 -101 -138 -220 -136 -373 2 -193 103 -359 261 -433 l57 -27 -66
-6 c-81 -9 -130 -33 -190 -96 -45 -46 -106 -133 -94 -133 4 0 37 27 75 59 106
91 149 113 235 119 l73 4 6 -48 c10 -72 -10 -190 -42 -254 -31 -61 -91 -113
-154 -132 -39 -11 -42 -11 -57 12 -104 159 -291 298 -486 360 -87 28 -288 37
-379 18 -56 -12 -60 -15 -69 -48 -15 -57 -1 -156 33 -227 58 -125 203 -232
386 -285 67 -19 102 -23 229 -23 142 0 191 7 277 40 10 4 12 -51 10 -280 l-3
-285 -24 0 c-14 0 -45 5 -70 12 -39 11 -47 10 -61 -4 -15 -15 -14 -18 12 -34
42 -28 159 -31 201 -5 l31 20 -15 48 c-21 66 -29 299 -13 405 6 45 14 86 16
89 2 3 36 -1 76 -11 l73 -17 6 -209 c6 -186 18 -297 34 -325 11 -16 174 -62
199 -55 27 7 56 31 56 47 0 6 -15 10 -32 9 -74 -4 -97 1 -129 27 -67 57 -91
174 -79 381 l7 113 105 107 c114 117 154 170 198 265 30 64 53 176 48 237 -3
35 -3 35 42 38 104 8 178 -40 257 -165 46 -73 48 -74 51 -45 7 72 -65 175
-155 220 -49 26 -139 52 -175 52 -15 0 -28 3 -27 8 0 4 54 33 119 65 124 61
226 141 270 211 33 54 55 231 42 334 -20 153 -96 265 -207 308 -37 14 -46 23
-55 53 -5 20 -10 41 -10 46 0 6 -33 128 -74 271 -85 297 -112 422 -128 575
-25 245 32 391 163 414 119 22 232 -89 200 -196 -11 -36 -81 -119 -101 -119
-23 0 -52 39 -57 78 -5 41 -6 42 -24 26 -45 -40 -10 -124 60 -145 32 -10 45
-8 83 9 36 15 50 29 68 67 19 40 22 58 18 124 -8 138 -80 222 -191 223 -105 1
-182 -57 -241 -182 -29 -60 -31 -73 -30 -170 1 -131 12 -200 80 -475 59 -239
84 -384 84 -484 l0 -64 -116 6 c-77 4 -121 10 -130 19 -41 41 -65 381 -62 863
3 413 -3 519 -36 567 -52 77 -233 124 -316 81z m276 -1799 c90 -73 123 -177
73 -230 -36 -39 -75 -55 -138 -57 -76 -3 -146 19 -187 58 -28 27 -34 39 -34
75 0 105 90 188 204 190 30 0 49 -8 82 -36z m584 -17 c125 -71 153 -166 70
-241 -50 -45 -104 -54 -191 -32 -111 29 -161 85 -140 158 21 68 82 122 156
138 36 8 59 3 105 -23z m-492 -397 c179 -10 263 -8 331 6 40 9 8 -20 -51 -46
-71 -31 -208 -38 -314 -16 -104 21 -187 49 -192 66 -3 9 1 11 12 7 9 -4 105
-11 214 -17z"/>
</g>
</svg>
